<svg width="32" height="32" viewBox="0 0 32 32" fill="none" xmlns="http://www.w3.org/2000/svg">
<g clip-path="url(#clip0_23_5)">
<rect width="32" height="32" fill="white"/>
<circle cx="16" cy="16" r="16" fill="#003049"/>
<path d="M16.8906 17.2617V15.2461L24.168 15.2344V21.6094C23.0508 22.5 21.8984 23.1719 20.7109 23.625C19.5234 24.0703 18.3047 24.293 17.0547 24.293C15.3672 24.293 13.832 23.9336 12.4492 23.2148C11.0742 22.4883 10.0352 21.4414 9.33203 20.0742C8.62891 18.707 8.27734 17.1797 8.27734 15.4922C8.27734 13.8203 8.625 12.2617 9.32031 10.8164C10.0234 9.36328 11.0312 8.28516 12.3438 7.58203C13.6562 6.87891 15.168 6.52734 16.8789 6.52734C18.1211 6.52734 19.2422 6.73047 20.2422 7.13672C21.25 7.53516 22.0391 8.09375 22.6094 8.8125C23.1797 9.53125 23.6133 10.4688 23.9102 11.625L21.8594 12.1875C21.6016 11.3125 21.2812 10.625 20.8984 10.125C20.5156 9.625 19.9688 9.22656 19.2578 8.92969C18.5469 8.625 17.7578 8.47266 16.8906 8.47266C15.8516 8.47266 14.9531 8.63281 14.1953 8.95312C13.4375 9.26562 12.8242 9.67969 12.3555 10.1953C11.8945 10.7109 11.5352 11.2773 11.2773 11.8945C10.8398 12.957 10.6211 14.1094 10.6211 15.3516C10.6211 16.8828 10.8828 18.1641 11.4062 19.1953C11.9375 20.2266 12.707 20.9922 13.7148 21.4922C14.7227 21.9922 15.793 22.2422 16.9258 22.2422C17.9102 22.2422 18.8711 22.0547 19.8086 21.6797C20.7461 21.2969 21.457 20.8906 21.9414 20.4609V17.2617H16.8906Z" fill="white"/>
</g>
<defs>
<clipPath id="clip0_23_5">
<rect width="32" height="32" fill="white"/>
</clipPath>
</defs>
</svg>
